<mxfile host="Electron" modified="2024-05-11T02:11:39.226Z" agent="Mozilla/5.0 (Windows NT 10.0; Win64; x64) AppleWebKit/537.36 (KHTML, like Gecko) draw.io/24.2.5 Chrome/120.0.6099.109 Electron/28.1.0 Safari/537.36" etag="yPr6klsrUGG7VBa8mHTc" version="24.2.5" type="device">
  <diagram name="第 1 页" id="BaFM6djd5I_EMZOGuvNs">
    <mxGraphModel dx="1098" dy="817" grid="1" gridSize="10" guides="1" tooltips="1" connect="1" arrows="1" fold="1" page="1" pageScale="1" pageWidth="827" pageHeight="1169" math="0" shadow="0">
      <root>
        <mxCell id="0" />
        <mxCell id="1" parent="0" />
        <mxCell id="UWJKWEuTwi-6ReWFImr1-20" style="edgeStyle=orthogonalEdgeStyle;rounded=0;orthogonalLoop=1;jettySize=auto;html=1;" edge="1" parent="1" source="UWJKWEuTwi-6ReWFImr1-1" target="UWJKWEuTwi-6ReWFImr1-2">
          <mxGeometry relative="1" as="geometry" />
        </mxCell>
        <mxCell id="UWJKWEuTwi-6ReWFImr1-1" value="&lt;div&gt;Ability Input&lt;/div&gt;&lt;div&gt;Decorator Node&lt;/div&gt;" style="rounded=0;whiteSpace=wrap;html=1;fillColor=#008a00;strokeColor=#005700;fontColor=#ffffff;" vertex="1" parent="1">
          <mxGeometry x="370" y="100" width="120" height="60" as="geometry" />
        </mxCell>
        <mxCell id="UWJKWEuTwi-6ReWFImr1-21" style="edgeStyle=orthogonalEdgeStyle;rounded=0;orthogonalLoop=1;jettySize=auto;html=1;entryX=0.5;entryY=0;entryDx=0;entryDy=0;" edge="1" parent="1" source="UWJKWEuTwi-6ReWFImr1-2" target="UWJKWEuTwi-6ReWFImr1-3">
          <mxGeometry relative="1" as="geometry" />
        </mxCell>
        <mxCell id="UWJKWEuTwi-6ReWFImr1-22" style="edgeStyle=orthogonalEdgeStyle;rounded=0;orthogonalLoop=1;jettySize=auto;html=1;entryX=0.5;entryY=0;entryDx=0;entryDy=0;" edge="1" parent="1" source="UWJKWEuTwi-6ReWFImr1-2" target="UWJKWEuTwi-6ReWFImr1-5">
          <mxGeometry relative="1" as="geometry" />
        </mxCell>
        <mxCell id="UWJKWEuTwi-6ReWFImr1-23" style="edgeStyle=orthogonalEdgeStyle;rounded=0;orthogonalLoop=1;jettySize=auto;html=1;" edge="1" parent="1" source="UWJKWEuTwi-6ReWFImr1-2" target="UWJKWEuTwi-6ReWFImr1-7">
          <mxGeometry relative="1" as="geometry" />
        </mxCell>
        <mxCell id="UWJKWEuTwi-6ReWFImr1-25" style="edgeStyle=orthogonalEdgeStyle;rounded=0;orthogonalLoop=1;jettySize=auto;html=1;entryX=0.5;entryY=0;entryDx=0;entryDy=0;" edge="1" parent="1" source="UWJKWEuTwi-6ReWFImr1-2" target="UWJKWEuTwi-6ReWFImr1-18">
          <mxGeometry relative="1" as="geometry" />
        </mxCell>
        <mxCell id="UWJKWEuTwi-6ReWFImr1-2" value="&lt;div&gt;Selector&lt;/div&gt;" style="rounded=0;whiteSpace=wrap;html=1;" vertex="1" parent="1">
          <mxGeometry x="370" y="210" width="120" height="60" as="geometry" />
        </mxCell>
        <mxCell id="UWJKWEuTwi-6ReWFImr1-29" style="edgeStyle=orthogonalEdgeStyle;rounded=0;orthogonalLoop=1;jettySize=auto;html=1;entryX=0.5;entryY=0;entryDx=0;entryDy=0;" edge="1" parent="1" source="UWJKWEuTwi-6ReWFImr1-3" target="UWJKWEuTwi-6ReWFImr1-4">
          <mxGeometry relative="1" as="geometry" />
        </mxCell>
        <mxCell id="UWJKWEuTwi-6ReWFImr1-3" value="&lt;div&gt;Primary Attack Input&lt;/div&gt;&lt;div&gt;Decorator Node&lt;/div&gt;" style="rounded=0;whiteSpace=wrap;html=1;" vertex="1" parent="1">
          <mxGeometry x="50" y="320" width="120" height="60" as="geometry" />
        </mxCell>
        <mxCell id="UWJKWEuTwi-6ReWFImr1-4" value="&lt;div&gt;Primary Attack&lt;/div&gt;&lt;div&gt;Action Node&lt;/div&gt;" style="rounded=0;whiteSpace=wrap;html=1;" vertex="1" parent="1">
          <mxGeometry x="50" y="420" width="120" height="60" as="geometry" />
        </mxCell>
        <mxCell id="UWJKWEuTwi-6ReWFImr1-30" style="edgeStyle=orthogonalEdgeStyle;rounded=0;orthogonalLoop=1;jettySize=auto;html=1;entryX=0.5;entryY=0;entryDx=0;entryDy=0;" edge="1" parent="1" source="UWJKWEuTwi-6ReWFImr1-5" target="UWJKWEuTwi-6ReWFImr1-6">
          <mxGeometry relative="1" as="geometry" />
        </mxCell>
        <mxCell id="UWJKWEuTwi-6ReWFImr1-5" value="&lt;div&gt;Secondary Attack Input&lt;/div&gt;&lt;div&gt;Decorator Node&lt;/div&gt;" style="rounded=0;whiteSpace=wrap;html=1;" vertex="1" parent="1">
          <mxGeometry x="210" y="320" width="120" height="60" as="geometry" />
        </mxCell>
        <mxCell id="UWJKWEuTwi-6ReWFImr1-6" value="&lt;div&gt;Secondary Attack&lt;/div&gt;&lt;div&gt;Action Node&lt;/div&gt;" style="rounded=0;whiteSpace=wrap;html=1;" vertex="1" parent="1">
          <mxGeometry x="210" y="420" width="120" height="60" as="geometry" />
        </mxCell>
        <mxCell id="UWJKWEuTwi-6ReWFImr1-31" style="edgeStyle=orthogonalEdgeStyle;rounded=0;orthogonalLoop=1;jettySize=auto;html=1;entryX=0.5;entryY=0;entryDx=0;entryDy=0;" edge="1" parent="1" source="UWJKWEuTwi-6ReWFImr1-7" target="UWJKWEuTwi-6ReWFImr1-8">
          <mxGeometry relative="1" as="geometry" />
        </mxCell>
        <mxCell id="UWJKWEuTwi-6ReWFImr1-7" value="&lt;div&gt;Dash Input&lt;/div&gt;&lt;div&gt;Decorator Node&lt;/div&gt;" style="rounded=0;whiteSpace=wrap;html=1;" vertex="1" parent="1">
          <mxGeometry x="370" y="320" width="120" height="60" as="geometry" />
        </mxCell>
        <mxCell id="UWJKWEuTwi-6ReWFImr1-8" value="&lt;div&gt;Dash&lt;/div&gt;&lt;div&gt;Action Node&lt;/div&gt;" style="rounded=0;whiteSpace=wrap;html=1;" vertex="1" parent="1">
          <mxGeometry x="370" y="420" width="120" height="60" as="geometry" />
        </mxCell>
        <mxCell id="UWJKWEuTwi-6ReWFImr1-26" style="edgeStyle=orthogonalEdgeStyle;rounded=0;orthogonalLoop=1;jettySize=auto;html=1;entryX=0.5;entryY=0;entryDx=0;entryDy=0;" edge="1" parent="1" source="UWJKWEuTwi-6ReWFImr1-9" target="UWJKWEuTwi-6ReWFImr1-10">
          <mxGeometry relative="1" as="geometry" />
        </mxCell>
        <mxCell id="UWJKWEuTwi-6ReWFImr1-9" value="&lt;div&gt;Jump Input&lt;/div&gt;&lt;div&gt;Decorator Node&lt;/div&gt;" style="rounded=0;whiteSpace=wrap;html=1;" vertex="1" parent="1">
          <mxGeometry x="540" y="320" width="120" height="60" as="geometry" />
        </mxCell>
        <mxCell id="UWJKWEuTwi-6ReWFImr1-27" style="edgeStyle=orthogonalEdgeStyle;rounded=0;orthogonalLoop=1;jettySize=auto;html=1;entryX=0.5;entryY=0;entryDx=0;entryDy=0;" edge="1" parent="1" source="UWJKWEuTwi-6ReWFImr1-10" target="UWJKWEuTwi-6ReWFImr1-13">
          <mxGeometry relative="1" as="geometry" />
        </mxCell>
        <mxCell id="UWJKWEuTwi-6ReWFImr1-10" value="&lt;div&gt;Selector&lt;/div&gt;" style="rounded=0;whiteSpace=wrap;html=1;" vertex="1" parent="1">
          <mxGeometry x="540" y="420" width="120" height="60" as="geometry" />
        </mxCell>
        <mxCell id="UWJKWEuTwi-6ReWFImr1-13" value="&lt;div&gt;CanJump&lt;/div&gt;&lt;div&gt;Decorator Node&lt;/div&gt;" style="rounded=0;whiteSpace=wrap;html=1;" vertex="1" parent="1">
          <mxGeometry x="465" y="550" width="120" height="60" as="geometry" />
        </mxCell>
        <mxCell id="UWJKWEuTwi-6ReWFImr1-14" value="&lt;div&gt;Primary Attack&lt;/div&gt;&lt;div&gt;Action Node&lt;/div&gt;" style="rounded=0;whiteSpace=wrap;html=1;" vertex="1" parent="1">
          <mxGeometry x="465" y="650" width="120" height="60" as="geometry" />
        </mxCell>
        <mxCell id="UWJKWEuTwi-6ReWFImr1-15" value="&lt;div&gt;IsTouching Wall&lt;/div&gt;&lt;div&gt;Decorator Node&lt;/div&gt;" style="rounded=0;whiteSpace=wrap;html=1;" vertex="1" parent="1">
          <mxGeometry x="615" y="550" width="120" height="60" as="geometry" />
        </mxCell>
        <mxCell id="UWJKWEuTwi-6ReWFImr1-16" value="&lt;div&gt;Wall Jump&lt;/div&gt;&lt;div&gt;Action Node&lt;/div&gt;" style="rounded=0;whiteSpace=wrap;html=1;" vertex="1" parent="1">
          <mxGeometry x="615" y="650" width="120" height="60" as="geometry" />
        </mxCell>
        <mxCell id="UWJKWEuTwi-6ReWFImr1-17" value="TODO:&amp;nbsp;&lt;div&gt;可以建立Grounded和IsTouching Wall&lt;div&gt;的两个场景的&lt;/div&gt;&lt;/div&gt;&lt;div&gt;Ability Input Node&lt;/div&gt;&lt;div&gt;&lt;br&gt;&lt;/div&gt;&lt;div&gt;因为在这两个场景中能做的能力动作&lt;/div&gt;&lt;div&gt;并不一致&lt;/div&gt;" style="shape=note;whiteSpace=wrap;html=1;backgroundOutline=1;darkOpacity=0.05;fillColor=#fff2cc;strokeColor=#d6b656;" vertex="1" parent="1">
          <mxGeometry x="40" y="70" width="260" height="150" as="geometry" />
        </mxCell>
        <mxCell id="UWJKWEuTwi-6ReWFImr1-32" style="edgeStyle=orthogonalEdgeStyle;rounded=0;orthogonalLoop=1;jettySize=auto;html=1;entryX=0.5;entryY=0;entryDx=0;entryDy=0;" edge="1" parent="1" source="UWJKWEuTwi-6ReWFImr1-18" target="UWJKWEuTwi-6ReWFImr1-19">
          <mxGeometry relative="1" as="geometry" />
        </mxCell>
        <mxCell id="UWJKWEuTwi-6ReWFImr1-18" value="&lt;div&gt;Dodge Input&lt;/div&gt;&lt;div&gt;Decorator Node&lt;/div&gt;" style="rounded=0;whiteSpace=wrap;html=1;" vertex="1" parent="1">
          <mxGeometry x="700" y="320" width="120" height="60" as="geometry" />
        </mxCell>
        <mxCell id="UWJKWEuTwi-6ReWFImr1-19" value="&lt;div&gt;Dodge&lt;/div&gt;&lt;div&gt;Action Node&lt;/div&gt;" style="rounded=0;whiteSpace=wrap;html=1;" vertex="1" parent="1">
          <mxGeometry x="700" y="420" width="120" height="60" as="geometry" />
        </mxCell>
        <mxCell id="UWJKWEuTwi-6ReWFImr1-24" style="edgeStyle=orthogonalEdgeStyle;rounded=0;orthogonalLoop=1;jettySize=auto;html=1;entryX=0.575;entryY=-0.017;entryDx=0;entryDy=0;entryPerimeter=0;" edge="1" parent="1" source="UWJKWEuTwi-6ReWFImr1-2" target="UWJKWEuTwi-6ReWFImr1-9">
          <mxGeometry relative="1" as="geometry" />
        </mxCell>
        <mxCell id="UWJKWEuTwi-6ReWFImr1-28" style="edgeStyle=orthogonalEdgeStyle;rounded=0;orthogonalLoop=1;jettySize=auto;html=1;entryX=0.592;entryY=0.033;entryDx=0;entryDy=0;entryPerimeter=0;" edge="1" parent="1" source="UWJKWEuTwi-6ReWFImr1-10" target="UWJKWEuTwi-6ReWFImr1-15">
          <mxGeometry relative="1" as="geometry" />
        </mxCell>
      </root>
    </mxGraphModel>
  </diagram>
</mxfile>
